<svg width="336" height="148" viewBox="0 0 336 148" fill="none" xmlns="http://www.w3.org/2000/svg">
<path d="M27.4116 98.3707C22.1681 78.7324 22.0856 54.0797 32.7132 24.0982L57.0454 0V21.4483L40.9592 37.047C24.1906 76.8237 33.9723 108.216 40.9592 118.94C26.1404 77.6037 47.1337 45.4963 59.4827 34.6097V66.7821C40.949 96.2847 50.8777 132.146 58.7565 147.769C47.1278 137.965 33.6309 121.664 27.4116 98.3707Z" fill="#004F93"/>
<path d="M6.34952 50.2084L30.7489 26.0437C20.871 55.174 21.0584 79.3002 26.2342 98.6851C32.3856 121.724 45.5671 138.005 57.1499 148C16.0763 126.641 12.9173 77.0876 16.5862 54.5955L0.5 69.7068L6.34952 50.2084Z" fill="#004F93"/>
<path d="M63.3824 76.5313V86.8134C68.7193 90.957 74.0913 97.4605 76.4374 106.144C79.225 116.461 77.7128 129.748 66.9905 145.659C97.8677 115.234 77.6867 87.0211 63.3824 76.5313Z" fill="#004F93"/>
<path d="M75.261 106.462C77.8982 116.223 76.5887 128.924 66.4305 144.303C71.4028 132.591 76.0644 110.961 63.3824 96.5171V88.3718C68.2903 92.3941 73.1044 98.4797 75.261 106.462Z" fill="#004F93"/>
<ellipse cx="71.1817" cy="67.2695" rx="9.7492" ry="9.74921" fill="#46A941"/>
<path d="M121.298 59.4702V66.82H116.243V96.1969H107.731V66.82H102.697V59.4702H121.298Z" fill="#1E293B"/>
<path d="M131.165 66.0941L130.841 70.0413C132.028 67.2132 133.746 65.716 135.997 65.5497V76.1435C134.501 76.1435 133.402 76.3704 132.701 76.8241C132.001 77.2778 131.569 77.9129 131.407 78.7296C131.246 79.5311 131.165 81.3913 131.165 84.3101V96.1969H122.996V66.0941H131.165Z" fill="#1E293B"/>
<path d="M145.136 77.7541H137.473V75.7352C137.473 73.4062 137.709 71.6141 138.181 70.3589C138.666 69.0885 139.63 67.9694 141.072 67.0015C142.514 66.0336 144.388 65.5497 146.693 65.5497C149.456 65.5497 151.539 66.1017 152.941 67.2057C154.342 68.2946 155.185 69.6405 155.468 71.2436C155.751 72.8315 155.892 76.1133 155.892 81.0888V96.1969H147.946V93.5201C147.448 94.5938 146.801 95.4029 146.005 95.9474C145.224 96.4767 144.287 96.7413 143.195 96.7413C141.766 96.7413 140.452 96.2952 139.252 95.4029C138.066 94.4955 137.473 92.522 137.473 89.4822V87.0095C137.473 84.7562 137.79 83.2212 138.423 82.4045C139.057 81.5879 140.627 80.6351 143.134 79.5462C145.817 78.3666 147.252 77.5727 147.441 77.1643C147.63 76.756 147.724 75.9242 147.724 74.669C147.724 73.0962 147.616 72.0754 147.401 71.6065C147.198 71.1226 146.855 70.8806 146.369 70.8806C145.817 70.8806 145.473 71.0848 145.338 71.4931C145.203 71.8863 145.136 72.9223 145.136 74.6009V77.7541ZM147.724 81.8828C146.417 82.9565 145.655 83.8564 145.439 84.5823C145.237 85.3082 145.136 86.3517 145.136 87.7128C145.136 89.2705 145.224 90.2762 145.399 90.7299C145.588 91.1836 145.952 91.4104 146.491 91.4104C147.003 91.4104 147.333 91.2365 147.481 90.8887C147.643 90.5257 147.724 89.5881 147.724 88.0757V81.8828Z" fill="#1E293B"/>
<path d="M167.013 66.0941L166.871 68.8617C167.464 67.7577 168.186 66.9335 169.035 66.389C169.897 65.8295 170.888 65.5497 172.007 65.5497C173.409 65.5497 174.554 65.9202 175.444 66.6612C176.334 67.4023 176.907 68.3399 177.163 69.4742C177.419 70.5933 177.547 72.4686 177.547 75.1V96.1969H169.378V75.3495C169.378 73.2777 169.318 72.0149 169.196 71.5612C169.075 71.1075 168.738 70.8806 168.186 70.8806C167.606 70.8806 167.242 71.1453 167.094 71.6746C166.945 72.1888 166.871 73.5801 166.871 75.8486V96.1969H158.703V66.0941H167.013Z" fill="#1E293B"/>
<path d="M197.058 75.7125H189.82V74.0792C189.82 72.6879 189.745 71.8107 189.597 71.4477C189.462 71.0697 189.112 70.8806 188.546 70.8806C188.088 70.8806 187.744 71.0545 187.515 71.4024C187.286 71.7351 187.171 72.2417 187.171 72.9223C187.171 73.8448 187.225 74.5253 187.333 74.9639C187.454 75.3873 187.798 75.8562 188.364 76.3704C188.943 76.8845 190.123 77.6331 191.902 78.6162C194.275 79.9168 195.831 81.1417 196.573 82.2911C197.314 83.4405 197.685 85.1116 197.685 87.3044C197.685 89.7544 197.402 91.607 196.836 92.8622C196.269 94.1023 195.319 95.0627 193.985 95.7432C192.664 96.4086 191.066 96.7413 189.193 96.7413C187.117 96.7413 185.338 96.3784 183.855 95.6525C182.386 94.9266 181.375 93.9435 180.822 92.7034C180.27 91.4633 179.993 89.5881 179.993 87.0776V85.6258H187.232V87.5313C187.232 89.1495 187.319 90.2005 187.494 90.6845C187.683 91.1684 188.047 91.4104 188.586 91.4104C189.166 91.4104 189.57 91.2516 189.799 90.934C190.029 90.6013 190.143 89.9132 190.143 88.8697C190.143 87.433 189.995 86.5332 189.698 86.1702C189.388 85.8072 187.804 84.7335 184.947 82.949C182.548 81.4366 181.085 80.068 180.559 78.843C180.034 77.6029 179.771 76.1359 179.771 74.4421C179.771 72.0376 180.054 70.2681 180.62 69.1339C181.186 67.9845 182.143 67.0998 183.491 66.4798C184.853 65.8597 186.43 65.5497 188.222 65.5497C190.002 65.5497 191.511 65.8068 192.751 66.321C194.005 66.82 194.962 67.4855 195.622 68.3172C196.296 69.149 196.701 69.9203 196.836 70.6311C196.984 71.3419 197.058 72.4534 197.058 73.9658V75.7125Z" fill="#1E293B"/>
<path d="M218.429 66.0941V89.278C218.429 92.4085 218.362 94.435 218.227 95.3576C218.106 96.265 217.654 97.2253 216.872 98.2385C216.091 99.2669 214.999 100.046 213.597 100.575C212.209 101.12 210.456 101.392 208.34 101.392C205.739 101.392 203.649 100.893 202.072 99.8945C200.495 98.9115 199.68 96.9682 199.626 94.0645H207.552C207.552 95.3954 207.983 96.0608 208.846 96.0608C209.466 96.0608 209.877 95.8566 210.079 95.4483C210.281 95.04 210.382 94.1855 210.382 92.8849V90.6164C209.681 91.3272 208.94 91.8641 208.158 92.2271C207.39 92.59 206.581 92.7715 205.732 92.7715C204.263 92.7715 203.049 92.4388 202.092 91.7734C201.149 91.1079 200.502 90.2384 200.151 89.1646C199.801 88.0757 199.626 86.5332 199.626 84.5369V73.6028C199.626 70.7445 200.084 68.6878 201.001 67.4325C201.917 66.1773 203.312 65.5497 205.186 65.5497C206.21 65.5497 207.14 65.7841 207.976 66.2529C208.825 66.7217 209.58 67.425 210.241 68.3626L210.827 66.0941H218.429ZM210.241 74.0792C210.241 72.703 210.166 71.8258 210.018 71.4477C209.883 71.0697 209.573 70.8806 209.088 70.8806C208.616 70.8806 208.279 71.0999 208.077 71.5385C207.889 71.9619 207.794 72.8088 207.794 74.0792V84.1966C207.794 85.5426 207.868 86.4197 208.017 86.8281C208.165 87.2213 208.475 87.4179 208.947 87.4179C209.486 87.4179 209.836 87.1759 209.998 86.692C210.16 86.208 210.241 85.1116 210.241 83.4027V74.0792Z" fill="#1E293B"/>
<path d="M228.64 77.7541H220.977V75.7352C220.977 73.4062 221.213 71.6141 221.684 70.3589C222.17 69.0885 223.133 67.9694 224.576 67.0015C226.018 66.0336 227.892 65.5497 230.197 65.5497C232.96 65.5497 235.042 66.1017 236.444 67.2057C237.846 68.2946 238.688 69.6405 238.972 71.2436C239.255 72.8315 239.396 76.1133 239.396 81.0888V96.1969H231.45V93.5201C230.951 94.5938 230.304 95.4029 229.509 95.9474C228.727 96.4767 227.791 96.7413 226.699 96.7413C225.27 96.7413 223.956 96.2952 222.756 95.4029C221.57 94.4955 220.977 92.522 220.977 89.4822V87.0095C220.977 84.7562 221.294 83.2212 221.927 82.4045C222.561 81.5879 224.131 80.6351 226.638 79.5462C229.32 78.3666 230.756 77.5727 230.945 77.1643C231.133 76.756 231.228 75.9242 231.228 74.669C231.228 73.0962 231.12 72.0754 230.904 71.6065C230.702 71.1226 230.358 70.8806 229.873 70.8806C229.32 70.8806 228.977 71.0848 228.842 71.4931C228.707 71.8863 228.64 72.9223 228.64 74.6009V77.7541ZM231.228 81.8828C229.92 82.9565 229.159 83.8564 228.943 84.5823C228.741 85.3082 228.64 86.3517 228.64 87.7128C228.64 89.2705 228.727 90.2762 228.903 90.7299C229.091 91.1836 229.455 91.4104 229.994 91.4104C230.507 91.4104 230.837 91.2365 230.985 90.8887C231.147 90.5257 231.228 89.5881 231.228 88.0757V81.8828Z" fill="#1E293B"/>
<path d="M258.887 75.7125H251.649V74.0792C251.649 72.6879 251.575 71.8107 251.426 71.4477C251.292 71.0697 250.941 70.8806 250.375 70.8806C249.917 70.8806 249.573 71.0545 249.344 71.4024C249.115 71.7351 249 72.2417 249 72.9223C249 73.8448 249.054 74.5253 249.162 74.9639C249.283 75.3873 249.627 75.8562 250.193 76.3704C250.773 76.8845 251.952 77.6331 253.731 78.6162C256.104 79.9168 257.66 81.1417 258.402 82.2911C259.143 83.4405 259.514 85.1116 259.514 87.3044C259.514 89.7544 259.231 91.607 258.665 92.8622C258.099 94.1023 257.148 95.0627 255.814 95.7432C254.493 96.4086 252.896 96.7413 251.022 96.7413C248.946 96.7413 247.167 96.3784 245.684 95.6525C244.215 94.9266 243.204 93.9435 242.651 92.7034C242.099 91.4633 241.822 89.5881 241.822 87.0776V85.6258H249.061V87.5313C249.061 89.1495 249.148 90.2005 249.324 90.6845C249.512 91.1684 249.876 91.4104 250.415 91.4104C250.995 91.4104 251.399 91.2516 251.629 90.934C251.858 90.6013 251.972 89.9132 251.972 88.8697C251.972 87.433 251.824 86.5332 251.527 86.1702C251.217 85.8072 249.634 84.7335 246.776 82.949C244.377 81.4366 242.914 80.068 242.389 78.843C241.863 77.6029 241.6 76.1359 241.6 74.4421C241.6 72.0376 241.883 70.2681 242.449 69.1339C243.015 67.9845 243.972 67.0998 245.32 66.4798C246.682 65.8597 248.259 65.5497 250.051 65.5497C251.831 65.5497 253.34 65.8068 254.58 66.321C255.834 66.82 256.791 67.4855 257.452 68.3172C258.126 69.149 258.53 69.9203 258.665 70.6311C258.813 71.3419 258.887 72.4534 258.887 73.9658V75.7125Z" fill="#1E293B"/>
<path d="M270.109 59.4702V64.2567H261.697V59.4702H270.109ZM270.109 66.0941V96.1969H261.697V66.0941H270.109Z" fill="#1E293B"/>
<path d="M281.37 66.0941L281.229 68.8617C281.822 67.7577 282.543 66.9335 283.392 66.389C284.255 65.8295 285.246 65.5497 286.364 65.5497C287.766 65.5497 288.912 65.9202 289.802 66.6612C290.691 67.4023 291.264 68.3399 291.52 69.4742C291.776 70.5933 291.904 72.4686 291.904 75.1V96.1969H283.736V75.3495C283.736 73.2777 283.675 72.0149 283.554 71.5612C283.433 71.1075 283.096 70.8806 282.543 70.8806C281.963 70.8806 281.6 71.1453 281.451 71.6746C281.303 72.1888 281.229 73.5801 281.229 75.8486V96.1969H273.06V66.0941H281.37Z" fill="#1E293B"/>
<path d="M313.316 59.4702V96.1969H305.148V94.0192C304.366 94.9266 303.544 95.6071 302.681 96.0608C301.818 96.5145 300.915 96.7413 299.972 96.7413C298.705 96.7413 297.606 96.3708 296.676 95.6298C295.746 94.8736 295.146 94.004 294.877 93.021C294.62 92.038 294.492 90.435 294.492 88.2118V74.1246C294.492 71.8107 294.62 70.1698 294.877 69.2019C295.146 68.2341 295.753 67.3872 296.696 66.6612C297.64 65.9202 298.765 65.5497 300.073 65.5497C301.084 65.5497 302.007 65.7539 302.843 66.1622C303.692 66.5705 304.46 67.183 305.148 67.9997V59.4702H313.316ZM305.148 73.6709C305.148 72.5669 305.06 71.8258 304.885 71.4477C304.723 71.0697 304.393 70.8806 303.894 70.8806C303.409 70.8806 303.079 71.0545 302.903 71.4024C302.742 71.7351 302.661 72.4913 302.661 73.6709V88.416C302.661 89.641 302.742 90.4501 302.903 90.8433C303.065 91.2214 303.375 91.4104 303.833 91.4104C304.359 91.4104 304.71 91.1987 304.885 90.7752C305.06 90.3367 305.148 89.278 305.148 87.5994V73.6709Z" fill="#1E293B"/>
<path d="M334.728 76.6653V84.0378C334.728 86.7449 334.607 88.7336 334.364 90.0039C334.121 91.2592 333.602 92.4388 332.807 93.5428C332.012 94.6317 330.987 95.4407 329.734 95.9701C328.494 96.4842 327.065 96.7413 325.447 96.7413C323.641 96.7413 322.111 96.5221 320.858 96.0835C319.604 95.6298 318.627 94.9568 317.926 94.0645C317.239 93.1571 316.747 92.0683 316.45 90.7979C316.153 89.5124 316.005 87.5918 316.005 85.036V77.3231C316.005 74.5253 316.275 72.34 316.814 70.7672C317.353 69.1944 318.324 67.9316 319.725 66.9788C321.127 66.0261 322.92 65.5497 325.104 65.5497C326.937 65.5497 328.507 65.8597 329.815 66.4798C331.136 67.0847 332.153 67.8787 332.868 68.8617C333.582 69.8447 334.067 70.8579 334.323 71.9014C334.593 72.9449 334.728 74.5329 334.728 76.6653ZM326.559 74.3968C326.559 72.8542 326.485 71.8863 326.337 71.4931C326.189 71.0848 325.872 70.8806 325.387 70.8806C324.901 70.8806 324.578 71.0848 324.416 71.4931C324.254 71.8863 324.174 72.8542 324.174 74.3968V87.985C324.174 89.4066 324.254 90.3367 324.416 90.7752C324.578 91.1987 324.895 91.4104 325.367 91.4104C325.852 91.4104 326.169 91.2138 326.317 90.8206C326.479 90.4274 326.559 89.5805 326.559 88.2799V74.3968Z" fill="#1E293B"/>
<path d="M176.623 117.775L179.285 118.046C178.941 119.767 178.275 121.039 177.288 121.863C176.301 122.687 175.111 123.099 173.716 123.099C171.823 123.099 170.365 122.411 169.342 121.035C168.328 119.649 167.821 117.956 167.821 115.954C167.821 113.89 168.378 112.183 169.492 110.834C170.605 109.484 172.09 108.81 173.947 108.81C176.935 108.81 178.715 110.385 179.285 113.537L176.623 113.903C176.387 112.201 175.55 111.35 174.11 111.35C173.059 111.35 172.294 111.812 171.814 112.735C171.343 113.65 171.108 114.759 171.108 116.063C171.108 117.449 171.352 118.517 171.841 119.269C172.34 120.02 173.032 120.396 173.92 120.396C175.278 120.396 176.179 119.522 176.623 117.775Z" fill="#64748B"/>
<path d="M187.028 123.099C184.999 123.099 183.451 122.37 182.382 120.912C181.314 119.454 180.779 117.784 180.779 115.9C180.779 113.872 181.368 112.183 182.545 110.834C183.732 109.484 185.294 108.81 187.232 108.81C189.07 108.81 190.578 109.466 191.755 110.779C192.941 112.092 193.534 113.799 193.534 115.9C193.534 118.064 192.918 119.808 191.687 121.13C190.464 122.443 188.911 123.099 187.028 123.099ZM187.136 120.546C189.219 120.546 190.261 118.993 190.261 115.887C190.261 114.483 190.012 113.378 189.514 112.572C189.016 111.757 188.25 111.35 187.218 111.35C186.149 111.35 185.357 111.771 184.841 112.613C184.325 113.446 184.067 114.555 184.067 115.941C184.067 117.435 184.338 118.576 184.882 119.364C185.434 120.152 186.186 120.546 187.136 120.546Z" fill="#64748B"/>
<path d="M207.743 122.814H204.646V114.243C204.646 113.337 204.437 112.658 204.021 112.205C203.604 111.744 203.102 111.513 202.513 111.513C201.707 111.513 201.001 111.866 200.394 112.572C199.787 113.279 199.484 114.343 199.484 115.764V122.814H196.387V109.095H199.212V112.273C200.199 109.964 201.585 108.81 203.369 108.81C204.573 108.81 205.601 109.19 206.452 109.951C207.312 110.711 207.743 112.047 207.743 113.958V122.814Z" fill="#64748B"/>
<path d="M222.82 122.814H219.723V114.243C219.723 113.337 219.515 112.658 219.098 112.205C218.682 111.744 218.179 111.513 217.591 111.513C216.785 111.513 216.078 111.866 215.472 112.572C214.865 113.279 214.562 114.343 214.562 115.764V122.814H211.464V109.095H214.29V112.273C215.277 109.964 216.662 108.81 218.446 108.81C219.651 108.81 220.679 109.19 221.53 109.951C222.39 110.711 222.82 112.047 222.82 113.958V122.814Z" fill="#64748B"/>
<path d="M235.263 118.44L238.061 118.821C237.699 120.061 236.992 121.085 235.942 121.89C234.891 122.696 233.574 123.099 231.989 123.099C230.087 123.099 228.557 122.461 227.398 121.184C226.239 119.907 225.659 118.178 225.659 115.995C225.659 113.921 226.243 112.205 227.412 110.847C228.58 109.489 230.164 108.81 232.166 108.81C234.122 108.81 235.634 109.48 236.703 110.82C237.771 112.16 238.305 113.881 238.305 115.982L238.292 116.335H228.879C228.879 117.268 228.965 118.015 229.137 118.576C229.318 119.138 229.671 119.627 230.196 120.043C230.721 120.46 231.378 120.668 232.166 120.668C233.696 120.668 234.728 119.925 235.263 118.44ZM235.073 114.338C235.064 113.351 234.765 112.545 234.176 111.92C233.597 111.295 232.877 110.983 232.016 110.983C231.165 110.983 230.454 111.277 229.884 111.866C229.313 112.445 228.978 113.269 228.879 114.338H235.073Z" fill="#64748B"/>
<path d="M249.05 117.775L251.712 118.046C251.368 119.767 250.703 121.039 249.716 121.863C248.729 122.687 247.538 123.099 246.143 123.099C244.251 123.099 242.793 122.411 241.769 121.035C240.755 119.649 240.248 117.956 240.248 115.954C240.248 113.89 240.805 112.183 241.919 110.834C243.033 109.484 244.518 108.81 246.374 108.81C249.362 108.81 251.142 110.385 251.712 113.537L249.05 113.903C248.815 112.201 247.977 111.35 246.537 111.35C245.487 111.35 244.721 111.812 244.241 112.735C243.771 113.65 243.535 114.759 243.535 116.063C243.535 117.449 243.78 118.517 244.269 119.269C244.767 120.02 245.459 120.396 246.347 120.396C247.705 120.396 248.606 119.522 249.05 117.775Z" fill="#64748B"/>
<path d="M260.447 120.396V122.814C259.523 123.013 258.807 123.113 258.3 123.113C257.467 123.113 256.752 122.95 256.154 122.624C255.556 122.289 255.117 121.836 254.837 121.266C254.565 120.686 254.429 119.799 254.429 118.603V111.499H252.718V109.095H254.606L254.891 105.522L257.431 105.291V109.095H260.188V111.499H257.431V118.196C257.431 119.056 257.585 119.645 257.893 119.962C258.21 120.27 258.803 120.423 259.672 120.423C259.917 120.423 260.175 120.414 260.447 120.396Z" fill="#64748B"/>
<path d="M113.106 119.861L114.539 120.156C114.277 120.999 113.767 121.699 113.008 122.255C112.25 122.804 111.357 123.079 110.33 123.079C108.976 123.079 107.881 122.605 107.044 121.657C106.207 120.702 105.788 119.453 105.788 117.909C105.788 116.333 106.223 115.061 107.093 114.093C107.963 113.118 109.055 112.631 110.369 112.631C111.664 112.631 112.704 113.079 113.489 113.975C114.28 114.871 114.686 116.212 114.706 117.997H107.505C107.505 119.495 107.819 120.505 108.447 121.029C109.074 121.552 109.738 121.814 110.438 121.814C111.7 121.814 112.59 121.163 113.106 119.861ZM113.018 116.85C113.005 116.294 112.914 115.8 112.743 115.368C112.573 114.937 112.286 114.57 111.88 114.269C111.475 113.962 110.987 113.808 110.418 113.808C109.653 113.808 109.002 114.083 108.466 114.632C107.936 115.182 107.639 115.921 107.573 116.85H113.018Z" fill="#64748B"/>
<path d="M124.83 122.814H123.388V116.447C123.388 115.532 123.188 114.887 122.789 114.515C122.39 114.142 121.906 113.955 121.337 113.955C120.552 113.955 119.892 114.269 119.356 114.897C118.826 115.525 118.561 116.352 118.561 117.379V122.814H117.021V112.906H118.453V114.73C119.258 113.331 120.301 112.631 121.583 112.631C122.322 112.631 122.949 112.824 123.466 113.21C123.989 113.589 124.346 114.018 124.535 114.495C124.732 114.972 124.83 115.836 124.83 117.085V122.814Z" fill="#64748B"/>
<path d="M134.454 119.861L135.886 120.156C135.624 120.999 135.114 121.699 134.356 122.255C133.597 122.804 132.704 123.079 131.677 123.079C130.324 123.079 129.228 122.605 128.391 121.657C127.554 120.702 127.135 119.453 127.135 117.909C127.135 116.333 127.57 115.061 128.44 114.093C129.31 113.118 130.402 112.631 131.717 112.631C133.012 112.631 134.051 113.079 134.836 113.975C135.628 114.871 136.033 116.212 136.053 117.997H128.852C128.852 119.495 129.166 120.505 129.794 121.029C130.422 121.552 131.085 121.814 131.785 121.814C133.048 121.814 133.937 121.163 134.454 119.861ZM134.365 116.85C134.352 116.294 134.261 115.8 134.091 115.368C133.921 114.937 133.633 114.57 133.227 114.269C132.822 113.962 132.335 113.808 131.766 113.808C131 113.808 130.35 114.083 129.813 114.632C129.284 115.182 128.986 115.921 128.921 116.85H134.365Z" fill="#64748B"/>
<path d="M139.908 122.814H138.368V112.906H139.722V115.221C140.199 114.129 140.677 113.422 141.154 113.102C141.638 112.775 142.132 112.611 142.635 112.611C142.792 112.611 142.995 112.625 143.244 112.651V114.122H142.93C142.08 114.122 141.373 114.439 140.811 115.074C140.248 115.708 139.947 116.542 139.908 117.575V122.814Z" fill="#64748B"/>
<path d="M153.093 111.356V112.582C152.387 112.582 151.913 112.664 151.671 112.827C151.435 112.991 151.278 113.285 151.2 113.71C151.834 114.443 152.151 115.241 152.151 116.104C152.151 117.006 151.805 117.781 151.112 118.429C150.425 119.076 149.499 119.4 148.335 119.4C148.074 119.4 147.848 119.381 147.658 119.341C147.299 119.269 147.073 119.233 146.981 119.233C146.805 119.233 146.592 119.322 146.344 119.498C146.095 119.668 145.971 119.891 145.971 120.165C145.971 120.558 146.151 120.813 146.511 120.931C146.87 121.048 147.717 121.124 149.051 121.156C150.183 121.189 151.017 121.267 151.553 121.392C152.096 121.509 152.554 121.778 152.926 122.196C153.299 122.608 153.486 123.115 153.486 123.717C153.486 125.607 151.824 126.552 148.502 126.552C146.926 126.552 145.775 126.313 145.049 125.836C144.329 125.365 143.97 124.734 143.97 123.942C143.97 122.981 144.473 122.32 145.48 121.961C144.833 121.536 144.509 121.003 144.509 120.362C144.509 119.596 144.967 119.011 145.883 118.606C145.026 117.912 144.598 117.039 144.598 115.986C144.598 115.005 144.964 114.201 145.696 113.573C146.429 112.945 147.321 112.631 148.374 112.631C149.12 112.631 149.797 112.772 150.405 113.053C150.503 112.405 150.729 111.957 151.082 111.709C151.442 111.46 151.985 111.336 152.711 111.336C152.783 111.336 152.91 111.343 153.093 111.356ZM148.384 118.223C149.038 118.223 149.571 118.023 149.983 117.625C150.395 117.219 150.601 116.696 150.601 116.055C150.601 115.401 150.386 114.868 149.954 114.456C149.529 114.037 149.012 113.828 148.404 113.828C147.822 113.828 147.305 114.024 146.854 114.417C146.403 114.802 146.177 115.355 146.177 116.074C146.177 116.715 146.38 117.235 146.785 117.634C147.191 118.027 147.724 118.223 148.384 118.223ZM146.54 122.412C145.821 122.726 145.461 123.18 145.461 123.776C145.461 124.279 145.755 124.668 146.344 124.943C146.939 125.224 147.694 125.365 148.61 125.365C149.46 125.365 150.238 125.244 150.945 125.002C151.651 124.766 152.004 124.364 152.004 123.795C152.004 123.488 151.9 123.236 151.69 123.04C151.481 122.844 151.193 122.719 150.827 122.667C150.467 122.615 149.836 122.575 148.934 122.549C147.855 122.523 147.057 122.477 146.54 122.412Z" fill="#64748B"/>
<path d="M161.667 112.906L157.694 123.972C157.119 125.568 156.2 126.365 154.938 126.365C154.539 126.365 154.097 126.297 153.613 126.159V124.953C154.012 125.044 154.355 125.09 154.643 125.09C155.134 125.09 155.543 124.95 155.87 124.668C156.203 124.387 156.533 123.707 156.86 122.628L153.437 112.906H155.006L157.655 120.352L160.372 112.906H161.667Z" fill="#64748B"/>
<path d="M269.052 120.244L270.523 119.94C270.85 121.189 271.884 121.814 273.623 121.814C274.264 121.814 274.807 121.67 275.252 121.382C275.697 121.094 275.919 120.689 275.919 120.165C275.919 119.387 275.353 118.893 274.222 118.684L272.132 118.292C271.315 118.135 270.664 117.827 270.18 117.369C269.696 116.912 269.454 116.307 269.454 115.555C269.454 114.724 269.784 114.031 270.445 113.475C271.105 112.912 271.995 112.631 273.113 112.631C275.265 112.631 276.593 113.471 277.096 115.152L275.684 115.456C275.278 114.423 274.444 113.906 273.182 113.906C272.554 113.906 272.037 114.037 271.632 114.299C271.233 114.554 271.033 114.914 271.033 115.378C271.033 116.11 271.547 116.572 272.574 116.761L274.506 117.105C276.527 117.471 277.538 118.449 277.538 120.038C277.538 120.947 277.162 121.683 276.409 122.245C275.657 122.801 274.657 123.079 273.408 123.079C271.06 123.079 269.608 122.134 269.052 120.244Z" fill="#64748B"/>
<path d="M286.504 112.906L282.531 123.972C281.956 125.568 281.037 126.365 279.774 126.365C279.375 126.365 278.934 126.297 278.45 126.159V124.953C278.849 125.044 279.192 125.09 279.48 125.09C279.971 125.09 280.379 124.95 280.706 124.668C281.04 124.387 281.37 123.707 281.697 122.628L278.273 112.906H279.843L282.492 120.352L285.209 112.906H286.504Z" fill="#64748B"/>
<path d="M295.853 122.814H294.411V116.447C294.411 115.532 294.212 114.887 293.813 114.515C293.414 114.142 292.93 113.955 292.361 113.955C291.576 113.955 290.916 114.269 290.379 114.897C289.85 115.525 289.585 116.352 289.585 117.379V122.814H288.044V112.906H289.477V114.73C290.281 113.331 291.324 112.631 292.606 112.631C293.345 112.631 293.973 112.824 294.49 113.21C295.013 113.589 295.37 114.018 295.559 114.495C295.755 114.972 295.853 115.836 295.853 117.085V122.814Z" fill="#64748B"/>
<path d="M305.477 119.861L306.91 120.156C306.648 120.999 306.138 121.699 305.379 122.255C304.621 122.804 303.728 123.079 302.701 123.079C301.347 123.079 300.252 122.605 299.415 121.657C298.577 120.702 298.159 119.453 298.159 117.909C298.159 116.333 298.594 115.061 299.464 114.093C300.334 113.118 301.426 112.631 302.74 112.631C304.035 112.631 305.075 113.079 305.86 113.975C306.651 114.871 307.057 116.212 307.076 117.997H299.876C299.876 119.495 300.19 120.505 300.818 121.029C301.445 121.552 302.109 121.814 302.809 121.814C304.071 121.814 304.961 121.163 305.477 119.861ZM305.389 116.85C305.376 116.294 305.284 115.8 305.114 115.368C304.944 114.937 304.657 114.57 304.251 114.269C303.846 113.962 303.358 113.808 302.789 113.808C302.024 113.808 301.373 114.083 300.837 114.632C300.307 115.182 300.01 115.921 299.944 116.85H305.389Z" fill="#64748B"/>
<path d="M310.932 122.814H309.392V112.906H310.746V115.221C311.223 114.129 311.7 113.422 312.178 113.102C312.662 112.775 313.156 112.611 313.659 112.611C313.816 112.611 314.019 112.625 314.267 112.651V114.122H313.953C313.103 114.122 312.397 114.439 311.834 115.074C311.272 115.708 310.971 116.542 310.932 117.575V122.814Z" fill="#64748B"/>
<path d="M324.117 111.356V112.582C323.411 112.582 322.936 112.664 322.694 112.827C322.459 112.991 322.302 113.285 322.224 113.71C322.858 114.443 323.175 115.241 323.175 116.104C323.175 117.006 322.829 117.781 322.135 118.429C321.449 119.076 320.523 119.4 319.359 119.4C319.097 119.4 318.872 119.381 318.682 119.341C318.322 119.269 318.097 119.233 318.005 119.233C317.829 119.233 317.616 119.322 317.367 119.498C317.119 119.668 316.995 119.891 316.995 120.165C316.995 120.558 317.175 120.813 317.534 120.931C317.894 121.048 318.741 121.124 320.075 121.156C321.207 121.189 322.04 121.267 322.577 121.392C323.12 121.509 323.577 121.778 323.95 122.196C324.323 122.608 324.509 123.115 324.509 123.717C324.509 125.607 322.848 126.552 319.526 126.552C317.95 126.552 316.798 126.313 316.073 125.836C315.353 125.365 314.993 124.734 314.993 123.942C314.993 122.981 315.497 122.32 316.504 121.961C315.857 121.536 315.533 121.003 315.533 120.362C315.533 119.596 315.991 119.011 316.906 118.606C316.05 117.912 315.621 117.039 315.621 115.986C315.621 115.005 315.987 114.201 316.72 113.573C317.453 112.945 318.345 112.631 319.398 112.631C320.144 112.631 320.821 112.772 321.429 113.053C321.527 112.405 321.753 111.957 322.106 111.709C322.466 111.46 323.008 111.336 323.734 111.336C323.806 111.336 323.934 111.343 324.117 111.356ZM319.408 118.223C320.062 118.223 320.595 118.023 321.007 117.625C321.419 117.219 321.625 116.696 321.625 116.055C321.625 115.401 321.409 114.868 320.978 114.456C320.553 114.037 320.036 113.828 319.428 113.828C318.846 113.828 318.329 114.024 317.878 114.417C317.426 114.802 317.201 115.355 317.201 116.074C317.201 116.715 317.403 117.235 317.809 117.634C318.214 118.027 318.747 118.223 319.408 118.223ZM317.564 122.412C316.844 122.726 316.485 123.18 316.485 123.776C316.485 124.279 316.779 124.668 317.367 124.943C317.963 125.224 318.718 125.365 319.634 125.365C320.484 125.365 321.262 125.244 321.969 125.002C322.675 124.766 323.028 124.364 323.028 123.795C323.028 123.488 322.923 123.236 322.714 123.04C322.505 122.844 322.217 122.719 321.851 122.667C321.491 122.615 320.86 122.575 319.957 122.549C318.878 122.523 318.08 122.477 317.564 122.412Z" fill="#64748B"/>
<path d="M332.691 112.906L328.718 123.972C328.142 125.568 327.224 126.365 325.961 126.365C325.562 126.365 325.121 126.297 324.637 126.159V124.953C325.036 125.044 325.379 125.09 325.667 125.09C326.158 125.09 326.566 124.95 326.893 124.668C327.227 124.387 327.557 123.707 327.884 122.628L324.46 112.906H326.03L328.679 120.352L331.396 112.906H332.691Z" fill="#64748B"/>
</svg>
